<?xml version="1.0" encoding="UTF-8" standalone="no"?>
<svg
   version="1.1"
   id="Layer_1"
   x="0px"
   y="0px"
   width="100%"
   viewBox="0 0 1024 1024"
   enable-background="new 0 0 1024 1024"
   xml:space="preserve"
   xmlns:inkscape="http://www.inkscape.org/namespaces/inkscape"
   xmlns:sodipodi="http://sodipodi.sourceforge.net/DTD/sodipodi-0.dtd"
   xmlns="http://www.w3.org/2000/svg"
   xmlns:svg="http://www.w3.org/2000/svg">

<path
   fill="#ffffff"
   opacity="1"
   stroke="none"
   d="m 494.72452,4.853952 c 19.08566,0.279259 37.7742,-0.357174 56.29403,1.120305 20.81946,1.660934 41.63062,4.444153 62.17572,8.210509 17.2486,3.162041 34.185,8.165025 51.12574,12.838134 28.57776,7.883171 55.60034,19.809055 81.89019,33.286384 27.78821,14.245388 54.12922,30.911305 78.7544,50.179216 20.28747,15.87397 39.87909,32.58935 57.40448,51.49497 26.76416,28.87185 50.88892,59.71117 70.76935,93.89753 20.05493,34.48637 35.95813,70.66706 47.82987,108.66298 8.9851,28.75686 14.4831,58.23962 18.2479,88.12661 3.7022,29.38959 3.3723,58.87448 2.3641,88.29547 -1.3588,39.6568 -8.4482,78.49073 -19.7842,116.58515 -10.41286,34.9917 -24.38704,68.46081 -42.3254,100.17492 -9.77929,17.28937 -20.19897,34.34644 -31.8316,50.42151 -11.91846,16.46991 -25.38977,31.8559 -38.71967,47.25031 -8.58954,9.9198 -17.57153,19.65637 -27.40612,28.30572 -15.65265,13.76655 -31.78522,27.05915 -48.42994,39.60334 -13.46911,10.15075 -27.42962,19.9256 -42.17889,28.0365 -21.89801,12.04211 -44.31866,23.30651 -67.21381,33.30621 -17.25659,7.53693 -35.32464,13.6366 -53.54107,18.44628 -21.60486,5.7043 -43.64191,10.0264 -65.70014,13.6939 -26.62811,4.4271 -53.62164,5.6582 -80.5979,4.9738 -35.45337,-0.8993 -70.64224,-4.6419 -105.2117,-12.8561 C 355.98727,998.77277 315.28494,983.28961 276.57871,962.74616 249.14523,948.18585 223.10167,931.32111 198.78238,912.00763 186.23909,902.04626 174.60857,890.92548 162.68532,880.1955 136.40128,856.54187 114.42004,829.09369 94.306252,800.24335 74.822495,772.29651 57.931911,742.67407 44.780132,711.18976 28.68289,672.65417 16.396236,632.88471 10.216866,591.46491 5.37221,558.99158 2.700982,526.29187 4.33313,493.45712 5.851631,462.9086 8.761016,432.41705 16.368824,402.68857 c 5.174534,-20.22016 10.904932,-40.34839 17.561737,-60.12216 4.907009,-14.57614 11.044815,-28.84143 17.835815,-42.65445 9.132054,-18.57471 18.376103,-37.24778 29.489514,-54.65444 12.621902,-19.76938 26.64484,-38.76581 41.39833,-57.01527 12.39488,-15.33196 26.14873,-29.68921 40.29991,-43.45072 26.71024,-25.9747 56.40749,-48.223865 88.33409,-67.474559 23.7592,-14.326027 48.43135,-26.847794 74.21712,-37.062645 C 361.88095,25.844366 399.27649,14.92938 438.17203,10.002629 456.78369,7.645163 475.55432,6.54233 494.72452,4.853952 M 719.26886,576.63226 c -0.90112,2.31812 -1.49231,4.82495 -2.76569,6.91638 -2.96966,4.87726 -2.41046,8.86109 0.9267,13.63129 7.67676,10.97333 11.65106,23.55914 12.69208,36.83692 2.14142,27.31219 -4.3974,52.09478 -22.43402,73.34295 -5.53907,6.52539 -5.11591,11.33936 0.0322,18.33228 6.789,9.22192 14.12183,18.23181 19.52967,28.24609 14.85272,27.50421 20.29168,56.41718 10.17718,87.0611 -3.47302,10.52234 1.4751,20.42364 11.34985,23.89776 10.98127,3.86341 22.30274,-1.07312 26.18116,-11.78235 7.40857,-20.4569 8.94677,-41.45593 5.62976,-62.94177 -4.05023,-26.2348 -14.86768,-49.55169 -30.09729,-70.98688 -1.73981,-2.44885 -1.75653,-4.08441 -0.26496,-6.54254 8.38025,-13.81024 13.63282,-28.82788 16.28626,-44.70923 4.50012,-26.93353 2.63147,-53.05413 -10.23999,-77.77477 -1.43372,-2.75367 -1.44519,-6.24787 -2.11627,-9.39863 0.55517,-0.19494 1.11041,-0.38995 1.66559,-0.5849 5.09985,8.1966 11.61096,15.55707 21.10357,17.13978 8.65296,1.44281 10.46497,6.25756 10.97925,13.27923 0.0605,0.8266 0.159,1.68475 0.44006,2.45526 2.06604,5.66297 2.24359,11.37048 2.05219,17.44098 -0.67426,21.38001 12.5379,30.01642 32.32788,21.79975 6.58557,-2.73432 9.8009,-7.75879 10.28955,-14.615 0.51965,-7.28918 -2.27936,-13.66259 -5.95917,-19.73968 -0.75049,-1.23938 -1.60699,-2.53211 -1.90253,-3.9101 -1.63659,-7.62921 -3.1596,-15.28399 -4.59722,-22.9533 -0.20813,-1.11066 -0.17389,-2.70514 0.46881,-3.47138 10.1748,-12.13147 12.67944,-26.46484 10.2135,-41.34002 -2.24597,-13.5478 -5.26843,-27.18793 -9.92609,-40.07255 -12.71142,-35.16363 -26.6698,-69.87442 -39.70379,-104.92465 -4.8161,-12.95117 -11.20722,-25.26691 -11.68171,-39.8598 -1.21808,-37.46228 -13.69336,-71.21329 -36.31891,-101.1839 -1.09014,-1.44412 -1.63482,-3.61383 -1.69934,-5.47115 -0.9461,-27.21589 -3.80828,-54.09403 -12.77197,-80.04521 -6.04999,-17.51582 -13.72467,-34.05803 -28.31927,-46.18429 -14.13367,-11.74336 -29.99268,-15.64747 -47.39063,-7.85885 -13.75897,6.15958 -22.49432,17.5022 -28.88751,30.61419 -4.55713,9.34636 -8.19519,19.14084 -12.30133,28.87262 -59.362,-14.28461 -118.65683,-13.25443 -177.64859,1.86854 -0.34619,-0.62549 -0.56784,-0.88778 -0.64407,-1.18713 -0.37006,-1.45233 -0.59201,-2.95082 -1.06263,-4.36778 -5.52835,-16.64434 -11.77755,-32.87778 -24.4201,-45.76473 -15.13959,-15.43223 -36.12079,-18.47329 -54.75485,-7.45622 -12.76853,7.54916 -21.36332,19.01823 -27.71604,32.05049 -13.09103,26.85552 -19.26456,55.64763 -20.89899,85.22537 -0.77404,14.00708 -2.34317,26.94979 -12.52719,37.45217 -0.56384,0.58151 -0.89028,1.40042 -1.29763,2.12546 -14.63956,26.05609 -21.92725,54.05969 -22.33564,83.91397 -0.0265,1.93307 -0.54217,3.95364 -1.25088,5.76934 -14.73509,37.75104 -29.61672,75.44507 -44.2789,113.22428 -7.34152,18.91656 -14.92394,37.79132 -18.1326,58.00726 -2.64998,16.69605 -1.03467,32.51892 9.69508,46.4538 0.60697,0.78827 1.18512,2.21814 0.87917,2.99664 -4.20503,10.69995 -3.27582,22.67212 -9.56194,33.06165 -6.43161,10.62988 -4.83423,26.31164 12.73401,30.78521 15.814,4.02692 26.61022,-3.64935 26.83548,-19.92273 0.0459,-3.31671 -0.40741,-6.63788 -0.52168,-9.96069 -0.0439,-1.27777 0.0636,-2.60278 0.36351,-3.84308 1.4052,-5.81183 3.09718,-11.56232 4.27449,-17.4176 0.51253,-2.54907 1.37758,-3.68671 4.02951,-3.96814 7.59177,-0.80579 13.93665,-4.35785 19.16571,-9.78253 2.7143,-2.81586 5.01654,-6.02899 7.50491,-9.06262 0.44275,0.12274 0.88547,0.24554 1.32822,0.36828 -0.71243,2.97144 -1.17279,6.03296 -2.19437,8.89398 -1.67401,4.68824 -4.04443,9.14112 -5.54538,13.87574 -12.53549,39.54144 -6.68164,76.76342 14.3917,112.30108 -1.2591,1.82147 -2.68494,3.86371 -4.08875,5.92102 -1.4075,2.06262 -2.86801,4.094 -4.17672,6.21833 -19.42365,31.52752 -29.96357,65.26544 -24.32375,102.62689 1.3009,8.61792 3.77443,17.30749 7.26555,25.28241 4.27221,9.75927 16.48569,12.93707 26.6029,8.23004 9.55631,-4.44605 13.06607,-13.80921 9.00998,-24.28699 -4.36566,-11.27746 -5.35165,-23.02325 -4.36078,-34.89587 2.50324,-29.99402 14.19288,-56.10327 33.98716,-78.68469 5.72714,-6.53357 5.33316,-11.80982 0.47586,-18.84363 -5.72937,-8.29669 -11.91333,-16.66095 -15.60578,-25.91168 -11.31158,-28.33918 -11.1961,-56.6153 4.88285,-83.43671 3.42849,-5.71906 3.63076,-10.09296 0.98938,-16.08637 -8.49353,-19.27209 -9.38532,-38.83807 -0.6525,-58.50201 3.72302,-8.38318 9.25922,-15.1806 16.63708,-20.90198 -10.97839,-3.75043 -16.44586,-11.24994 -17.19668,-22.11975 -1.61844,-23.43036 1.97754,-46.13653 10.37692,-68.01834 8.75128,-22.79867 23.83405,-39.59683 46.77045,-49.13489 20.05713,-8.34073 40.69311,-14.63354 62.16714,-17.53967 23.06018,-3.12085 46.21411,-5.7897 69.40943,-7.60355 23.13668,-1.80926 46.26382,0.12018 69.30551,2.79145 28.32464,3.28369 56.18268,8.44702 83.28699,17.68863 28.72906,9.79559 49.24035,27.71707 59.48181,56.67068 7.13952,20.18405 9.56305,41.0784 9.48547,62.36685 -0.0438,12.021 -4.90301,20.75342 -16.1654,24.49265 4.63934,6.24847 9.90557,11.94079 13.55609,18.52844 9.79358,17.67316 9.18719,36.37378 3.50195,55.9931 M 396.84741,511.46063 c 0.2171,2.98291 0.1897,6.00745 0.68985,8.94208 4.10211,24.06866 17.97586,41.56738 37.931,54.41852 26.08179,16.79669 55.15799,22.4497 85.78357,21.15973 29.99402,-1.26325 57.65668,-9.28241 81.34082,-28.61866 30.22534,-24.67663 36.84418,-66.2069 15.49585,-98.64535 -16.67151,-25.33209 -41.05121,-39.46881 -69.90301,-46.02808 -41.7967,-9.50225 -81.2118,-3.88116 -116.19602,22.17154 -21.74454,16.19312 -35.06662,37.52179 -35.14206,66.60022 m -7.62897,-39.71576 c 0.71109,-0.69882 1.47675,-1.35064 2.12491,-2.10364 7.7381,-8.99002 9.08252,-19.27316 4.1951,-29.67175 -4.74676,-10.09945 -13.44171,-15.49896 -24.83963,-15.27225 -11.70163,0.23267 -19.67776,6.46586 -24.16092,16.97135 -4.7677,11.1723 -1.20685,23.13031 8.75333,31.14093 9.07803,7.30118 22.58392,7.05408 33.92721,-1.06464 m 243.03278,-8.65997 c 0.78314,1.27158 1.4693,2.61633 2.36505,3.80289 6.34448,8.40438 14.75189,12.35464 25.23834,10.81097 11.08759,-1.6322 18.60065,-7.88519 21.49244,-18.85187 2.70636,-10.26324 0.53869,-19.51559 -7.35773,-26.92627 -9.19855,-8.63275 -22.96564,-9.7091 -33.12287,-2.82815 -10.51062,7.12039 -14.00872,20.18902 -8.61523,33.99243 z"
   id="path2"
   style="display:inline" />
<path
   fill="#ffffff"
   opacity="1.000000"
   stroke="none"
   d=" M561.314453,296.704803   C548.025574,289.119781 537.121094,279.574493 528.908264,266.927338   C521.565308,255.619797 503.121185,257.287079 497.249420,266.925140   C485.586914,286.068451 467.304016,295.939117 448.132629,305.117462   C429.600250,313.989929 409.980835,319.216125 389.854156,322.376465   C371.084534,325.323700 352.110260,327.016449 333.550415,320.908813   C328.565430,319.268402 324.049866,316.243774 319.190735,314.152130   C317.782562,313.545959 315.676331,313.407349 314.319183,314.014099   C299.759247,320.523621 287.650696,330.278412 277.436798,342.589844   C279.104919,319.205017 284.642273,303.362854 311.257751,286.829071   C316.102325,292.207703 320.379211,297.953400 325.651031,302.560699   C332.496307,308.543091 341.437927,309.036194 350.106995,309.680206   C371.966095,311.304077 393.046783,307.728058 413.851379,301.047485   C431.532990,295.369690 448.695923,288.695587 463.914520,277.960602   C477.505615,268.373657 489.739319,257.306091 494.470032,240.490479   C496.012268,235.008667 496.328308,229.181900 497.329620,222.707977   C507.817932,222.707977 519.040833,222.707977 529.059814,222.707977   C531.003845,231.272202 532.162842,239.098099 534.605957,246.500153   C538.226379,257.469330 546.163696,265.750519 555.134216,272.351501   C590.399414,298.301544 630.218079,310.597443 673.957581,309.624817   C685.533997,309.367401 696.941162,307.103302 705.305420,297.891357   C708.509399,294.362579 711.009460,290.194672 714.079407,285.975555   C735.085083,299.524292 749.301208,317.742065 751.078979,344.386322   C749.968994,343.417542 748.754944,342.544220 747.765076,341.465271   C737.287964,330.045929 725.900574,319.820160 711.340942,313.809875   C710.156433,313.320923 708.266663,313.129303 707.296875,313.740021   C687.782532,326.028717 666.337402,326.249878 644.558105,323.679230   C617.549316,320.491333 591.802429,312.931335 567.646973,300.265167   C565.612122,299.198151 563.631836,298.026855 561.314453,296.704803  z"
   id="path7" />
<path
   fill="#ffffff"
   opacity="1.000000"
   stroke="none"
   d=" M378.955536,220.914246   C402.687988,212.288559 426.510437,206.105362 451.645325,207.255951   C460.931305,207.681030 469.969238,209.528198 478.204926,214.307526   C485.388824,218.476486 487.383484,225.014969 486.351105,232.571075   C484.336853,247.314209 475.045776,257.460663 463.707581,265.812469   C448.393707,277.092773 430.859650,283.824310 412.872223,289.578308   C391.742035,296.337616 370.142578,299.443787 348.067963,297.505554   C341.531342,296.931610 334.871826,294.586609 328.884186,291.752625   C321.794464,288.396912 318.923096,278.543976 321.353668,269.553192   C323.884369,260.191895 329.440063,252.659775 336.817535,246.676712   C343.948975,240.893188 351.351807,235.346939 359.131683,230.491623   C365.217621,226.693451 372.062531,224.111404 378.955536,220.914246  M446.056610,225.311569   C437.742462,225.465759 429.333710,224.876083 421.132538,225.918808   C399.729523,228.640030 379.851898,236.021057 361.773804,247.863327   C354.448547,252.661850 347.223206,257.804291 344.616852,266.933746   C343.038086,272.463837 344.706146,276.911072 350.147095,277.715240   C358.748688,278.986542 367.765991,280.288055 376.233704,279.040527   C394.882782,276.292969 413.011108,270.819702 430.127472,262.813751   C440.563080,257.932617 450.518158,251.935669 458.382385,243.137390   C464.532990,236.256241 462.924652,229.790680 454.211853,226.988113   C451.861725,226.232162 449.378906,225.888855 446.056610,225.311569  z"
   id="path8" />
<path
   fill="#ffffff"
   opacity="1.000000"
   stroke="none"
   d=" M551.357056,255.610046   C545.472290,248.017410 540.727234,240.459305 540.760315,230.588989   C540.797668,219.475311 545.188721,215.014679 555.045044,211.016678   C565.553833,206.754028 576.763184,206.474350 587.961304,207.383682   C614.293701,209.522034 639.348877,216.184067 663.107422,227.939758   C678.129578,235.372665 691.642578,244.408539 701.073425,258.616516   C708.052307,269.130493 707.733459,281.542664 699.538940,289.713959   C693.369690,295.865753 684.976685,297.092957 676.612122,297.711456   C657.128418,299.152130 638.167542,296.087128 619.483337,290.911774   C599.195068,285.292084 579.794678,277.577087 562.465332,265.384857   C558.550171,262.630371 555.207336,259.062408 551.357056,255.610046  M682.013428,265.611450   C680.991211,263.556274 680.274902,261.263641 678.895142,259.485992   C671.964233,250.556534 662.458313,244.824127 652.572754,240.022537   C636.892029,232.406052 620.373962,227.198380 602.920288,225.272675   C591.623535,224.026276 580.395752,223.165115 569.579346,227.821823   C563.913086,230.261307 562.865356,232.865097 565.642090,238.176544   C570.979553,248.386078 580.611511,253.786011 590.144226,258.934906   C607.258972,268.179138 625.703979,273.952179 644.740417,277.622650   C655.302307,279.659149 666.034058,281.301605 676.623535,277.189270   C681.815369,275.173035 683.563110,271.946869 682.013428,265.611450  z"
   id="path9" />
<path
   fill="#ffffff"
   opacity="1.000000"
   stroke="none"
   d=" M257.011658,563.950378   C246.439835,579.578064 236.411102,582.298950 219.611954,578.778687   C209.280670,576.613770 202.717468,569.746155 204.186523,559.200378   C204.384583,557.778748 205.498550,556.484619 206.188385,555.131470   C207.572678,556.007690 209.475967,556.559265 210.259232,557.811462   C216.543442,567.857971 228.575836,571.149963 238.726837,564.996826   C245.209946,561.067017 247.444336,553.922363 249.913177,547.390869   C258.297760,525.208862 262.778320,501.976837 268.135620,478.947906   C274.046173,453.540741 280.881775,428.318481 288.314392,403.312927   C290.745392,395.134277 295.998474,387.696808 300.545807,380.278900   C303.620911,375.262543 311.449554,374.475128 313.620026,378.530975   C314.487915,380.152740 314.826630,382.956604 314.004425,384.451233   C297.273560,414.865021 291.276031,448.677612 282.888214,481.736664   C277.929779,501.279358 273.278564,520.916138 267.633240,540.260803   C265.265991,548.372681 260.682922,555.837952 257.011658,563.950378  z"
   id="path10" />
<path
   fill="#ffffff"
   opacity="1.000000"
   stroke="none"
   d=" M816.009033,557.960693   C817.438049,556.781982 818.766174,555.958435 820.094299,555.134888   C820.694458,556.560364 821.671326,557.944031 821.834778,559.417908   C823.073486,570.585815 817.121704,577.308167 801.706604,579.597778   C785.906250,581.944580 775.463379,575.390137 767.637390,561.240723   C755.117798,538.605347 750.982239,513.363525 745.046814,488.694397   C737.438965,457.074402 730.899231,425.148865 717.540161,395.231537   C716.203674,392.238464 714.642883,389.298706 712.817078,386.582306   C710.296631,382.832489 710.644165,379.750427 714.338928,377.225006   C717.773560,374.877411 721.339172,375.674805 723.789490,378.451050   C726.918030,381.995850 729.575562,386.032867 731.981079,390.125183   C739.603638,403.092712 743.354980,417.558777 746.873413,431.946442   C754.261536,462.158905 760.825439,492.571991 768.059998,522.823242   C771.129028,535.656372 774.977417,548.351196 782.166199,559.616699   C789.261475,570.735718 807.075806,570.769104 814.687134,559.897766   C815.068787,559.352722 815.499939,558.842407 816.009033,557.960693  z"
   id="path11" />
<path
   fill="#ffffff"
   opacity="1.000000"
   stroke="none"
   d=" M387.582825,184.455902   C388.350403,187.720596 388.983948,190.605545 389.376892,192.394913   C370.554535,202.492859 352.323425,212.273605 333.618408,222.308594   C335.004517,214.657806 336.085602,206.517532 338.006653,198.580551   C341.139069,185.638840 345.317291,173.038528 352.335480,161.547043   C360.922302,147.487106 370.332428,147.211731 378.287476,161.536835   C382.196045,168.575256 384.447449,176.533920 387.582825,184.455902  z"
   id="path12" />
<path
   fill="#ffffff"
   opacity="1.000000"
   stroke="none"
   d=" M651.268311,158.335297   C652.256836,157.175568 652.994995,156.273621 653.792786,155.427872   C659.415955,149.466232 664.702087,148.766220 669.849548,155.107758   C674.990906,161.441711 679.270264,168.745163 682.610291,176.212723   C688.744507,189.927124 690.844238,204.723557 692.327881,219.027939   C674.390381,209.500381 656.475037,199.984573 638.090027,190.219315   C640.740234,179.674805 644.956970,168.776993 651.268311,158.335297  z"
   id="path13" />
<path
   fill="#ffffff"
   opacity="1.000000"
   stroke="none"
   d=" M223.940002,624.136597   C228.304962,624.323486 229.176270,625.976501 226.479568,629.024597   C222.055084,634.025513 209.955048,632.818054 206.705109,627.031921   C206.298004,626.307129 206.188583,624.573242 206.459091,624.450806   C207.860916,623.816162 209.443771,623.180298 210.939926,623.231628   C215.143845,623.376038 219.336182,623.856934 223.940002,624.136597  z"
   id="path14" />
<path
   fill="#ffffff"
   opacity="1.000000"
   stroke="none"
   d=" M803.498413,625.144287   C807.461365,624.500366 810.983337,623.745361 814.545227,623.351685   C815.821472,623.210632 818.086792,623.637390 818.327148,624.341858   C818.757202,625.602478 818.477112,627.659058 817.641724,628.697144   C814.771912,632.263062 805.456726,633.210510 802.015625,630.403259   C799.317505,628.202087 798.677734,626.097778 803.498413,625.144287  z"
   id="path15" />
<path
   fill="#ffffff"
   opacity="1.000000"
   stroke="none"
   d=" M543.989563,564.029175   C512.461243,569.686340 482.065552,568.857239 454.183411,551.977295   C446.947449,547.596619 440.278778,541.468872 434.991760,534.834778   C420.645660,516.833557 423.570892,492.308990 441.084442,475.271088   C462.293640,454.637878 488.201996,446.772766 517.136475,447.521881   C536.434937,448.021545 554.665344,452.852814 571.202209,463.022369   C581.244629,469.198059 589.919800,476.957916 595.534973,487.575104   C606.801758,508.878387 601.211670,532.413940 581.473816,547.445557   C570.408264,555.872559 557.857117,560.914307 543.989563,564.029175  M515.208618,533.992126   C522.724609,532.192932 526.555420,528.047974 526.265076,520.344116   C525.933777,511.553741 526.565491,504.247009 535.736694,499.248474   C541.876587,495.902100 542.402222,489.185059 539.162476,484.013336   C536.136047,479.182159 529.670044,477.417938 523.628357,480.246887   C520.356445,481.778839 517.449402,484.090088 514.164673,486.185822   C511.131226,484.299957 508.057251,481.973267 504.646484,480.357544   C498.135681,477.273285 491.260773,479.261047 487.963776,484.764557   C484.969299,489.763062 486.147064,496.901245 492.437958,500.245331   C500.698242,504.636292 502.098907,510.978699 501.113464,519.023010   C501.053223,519.514709 501.107697,520.021545 501.120880,520.521057   C501.345917,529.058533 505.765228,533.558777 515.208618,533.992126  z"
   id="path16" />



</svg>
