<?xml version="1.0" encoding="UTF-8" standalone="no"?>
<svg version="1.1" id="Layer_1" x="0px" y="0px" width="100%" viewBox="0 0 1024 1023" enable-background="new 0 0 1024 1023" xml:space="preserve" sodipodi:docname="collama.svg" inkscape:version="1.4.3 (0d15f75042, 2025-12-25)"
   xmlns:inkscape="http://www.inkscape.org/namespaces/inkscape"
   xmlns:sodipodi="http://sodipodi.sourceforge.net/DTD/sodipodi-0.dtd"
   xmlns="http://www.w3.org/2000/svg"
   xmlns:svg="http://www.w3.org/2000/svg">

   <path fill="#ffffff" opacity="1.000000" stroke="none" d=" M244.001556,79.001343   C285.651733,53.257168 329.686005,33.874962 376.580536,21.029722   C409.742462,11.946084 443.418091,6.131795 477.768066,3.801603   C558.783264,-1.694208 636.728333,11.199629 711.538696,42.533936   C762.177368,63.743938 808.055542,92.742897 849.370117,128.965393   C901.157349,174.369812 942.176453,228.012070 972.390564,289.848633   C993.420044,332.887695 1007.804626,378.129761 1016.021545,425.342316   C1020.540283,451.305786 1022.786377,477.435669 1023.273071,503.784637   C1024.688721,580.438782 1009.445557,653.593323 977.820557,723.378662   C953.515442,777.011353 920.674622,824.807373 879.748169,867.122559   C837.494812,910.809631 788.951172,945.786377 734.298035,972.239563   C688.726990,994.296814 640.773926,1009.120789 590.748291,1016.561401   C569.738403,1019.686279 548.391479,1021.106812 527.143799,1021.966003   C462.490753,1024.580322 399.786621,1013.901001 339.001099,992.066711   C294.702911,976.154602 253.453979,954.301025 215.255615,926.725525   C145.245773,876.185059 91.260597,812.103149 53.336830,734.593323   C31.685827,690.342224 16.795662,643.771973 9.348961,595.085327   C5.986888,573.104004 4.067443,550.801758 3.089645,528.574951   C0.215983,463.252411 10.872180,399.867096 33.040421,338.458191   C49.022774,294.185028 70.975655,252.997391 98.557846,214.797470   C138.069351,160.076080 186.531937,114.991592 244.001556,79.001343  M729.379333,733.917297   C730.343750,736.219971 731.269592,738.539673 732.278442,740.822693   C745.665283,771.115417 751.759583,802.603455 748.131714,835.757324   C747.502563,841.506470 746.600647,847.500061 747.548584,853.088318   C749.329346,863.586121 759.554932,870.708008 770.278442,870.174255   C781.677063,869.606873 789.994324,861.373230 791.790649,848.962219   C797.453430,809.836365 792.765747,771.901428 778.390564,735.170593   C776.642517,730.703857 776.948242,727.396851 779.274475,723.234985   C795.912781,693.467224 805.113281,661.612793 804.727234,627.328430   C804.373474,595.908691 795.993530,566.513428 781.349854,538.851929   C779.791748,535.908569 780.212158,534.177307 781.882629,531.366882   C786.963257,522.819031 792.299133,514.233887 795.882080,505.020172   C806.706665,477.184692 808.258728,448.179962 803.855042,418.918335   C797.423157,376.180023 779.437683,339.615204 744.702087,312.528809   C742.421326,310.750275 741.796448,309.003174 742.036072,306.235413   C742.998352,295.115997 743.982544,283.987610 744.482178,272.841156   C745.799561,243.450394 744.813232,214.186447 737.942810,185.413361   C733.168335,165.417725 725.736145,146.657654 711.085510,131.558090   C685.988281,105.691765 653.586853,107.296753 631.186707,135.444870   C619.805725,149.746231 612.161804,166.019348 607.325928,183.432541   C603.112732,198.603699 600.301147,214.164093 596.899048,229.423340   C541.853577,198.904419 486.003540,201.674042 430.954468,229.330994   C427.641235,214.078384 425.000793,198.457870 420.768494,183.281281   C414.949310,162.414291 405.990295,142.903580 390.330170,127.276772   C372.174622,109.159889 349.555298,106.907822 328.053314,120.859535   C317.171021,127.920586 309.140961,137.578934 302.954926,148.834244   C290.993500,170.597824 286.447174,194.417038 284.226349,218.758453   C281.598022,247.566010 282.583649,276.363495 285.779449,305.082672   C286.162140,308.521515 285.216553,310.450958 282.376068,312.408600   C270.348358,320.698120 260.081360,330.875519 251.294495,342.546936   C212.694611,393.818359 209.313919,474.861267 243.378632,529.439453   C244.324005,530.954163 244.757187,533.631104 244.086380,535.187195   C231.341888,564.750244 224.304764,595.591003 223.484329,627.750061   C222.577759,663.284485 229.300461,696.968384 248.753555,727.423584   C249.772049,729.018127 249.933075,731.817261 249.332748,733.681946   C245.511826,745.550110 240.775116,757.149475 237.445389,769.144287   C230.048950,795.788513 227.425232,822.808472 233.623947,850.155701   C236.663528,863.565552 248.017761,871.140747 260.628204,868.280823   C273.234497,865.421814 279.723236,853.825928 277.609741,840.310852   C276.077759,830.514160 275.249146,820.408630 275.769958,810.528503   C277.104797,785.206909 285.684875,761.725464 296.162598,738.922302   C300.651947,729.151855 300.080566,720.308716 293.137115,711.934021   C278.015839,693.695618 270.911041,672.251709 269.073059,649.027832   C266.041229,610.719116 273.616791,574.504395 291.768951,540.553894   C296.692749,531.344727 295.019104,522.171387 288.661346,514.095154   C283.367828,507.370819 278.230042,500.170776 274.804565,492.396606   C265.320282,470.872040 263.039703,448.080383 266.026276,424.856812   C271.476837,382.474152 292.430054,351.493256 333.105591,335.564178   C351.641052,328.305420 371.091705,325.831268 390.889282,325.715057   C402.308319,325.648010 409.684418,320.329590 414.495728,309.830231   C417.913422,302.372040 422.444275,295.130646 427.774231,288.901337   C439.973053,274.644012 455.901215,265.647003 473.540070,259.687378   C499.518036,250.910233 525.724792,249.525986 552.030518,258.158173   C580.029663,267.346069 599.675232,286.028534 612.435913,312.251953   C617.157593,321.955261 624.609497,326.775543 635.454285,326.675171   C644.269287,326.593536 653.141663,326.315002 661.895020,327.129669   C690.240662,329.767883 715.094482,340.373627 732.946838,363.137970   C760.792664,398.645294 766.726379,438.995361 756.198792,482.173279   C753.497070,493.254364 749.028687,503.782684 739.784973,511.268158   C726.634277,521.917358 724.961731,531.902588 734.015259,546.362305   C750.160095,572.147888 760.010559,599.928284 759.747559,630.691345   C759.492065,660.570557 749.539917,687.475647 733.646973,712.370422   C729.499756,718.866455 727.207214,725.470398 729.379333,733.917297  M437.824860,596.681702   C458.332428,607.746033 480.437988,612.582520 503.539917,613.285095   C530.597961,614.108032 557.111206,611.328369 582.188782,600.223450   C617.951843,584.386719 636.681946,552.718994 631.842590,514.913452   C628.740662,490.680878 615.494995,471.887512 596.873230,456.889160   C567.221252,433.006989 532.945068,424.885254 495.631958,429.464722   C463.833008,433.367432 436.174316,446.388824 414.488953,470.420013   C395.494263,491.469482 386.730988,515.837891 394.275909,544.123596   C400.602814,567.842957 416.283234,584.337341 437.824860,596.681702  M644.344543,488.179779   C658.214233,498.053253 675.311279,496.400818 685.597290,484.192749   C695.788940,472.096527 695.089905,454.358063 683.990417,443.421082   C671.892761,431.500519 652.933044,431.841309 641.123901,444.191559   C629.336365,456.519196 630.486328,475.356781 644.344543,488.179779  M344.506134,440.953888   C343.286591,442.080780 341.992493,443.137726 340.859100,444.345459   C329.943237,455.976807 330.262939,474.546600 341.545349,485.862732   C352.805450,497.156372 370.843109,497.677826 382.630768,487.050415   C394.376801,476.460449 396.020874,459.071075 386.469727,446.445007   C376.688080,433.514221 359.784363,431.092224 344.506134,440.953888  z" id="path2" />
   <path fill="#ffffff" opacity="1.000000" stroke="none" d=" M377.951965,196.077942   C384.686584,218.917450 387.122772,241.786285 384.757416,265.106506   C384.476685,267.874146 383.980835,270.725800 382.962372,273.291504   C380.588287,279.272339 376.574646,281.851318 369.500641,282.397095   C356.308533,283.414825 343.263214,286.335205 329.461395,288.576721   C329.185242,284.853363 328.760437,280.491608 328.553772,276.119537   C327.166321,246.766388 326.828369,217.408981 335.197968,188.895142   C337.775482,180.113922 341.968445,171.508133 346.946594,163.807816   C352.843628,154.686172 357.296936,154.693298 362.681366,163.866837   C368.608002,173.964249 372.870056,185.038666 377.951965,196.077942  z" id="path7" />
   <path fill="#ffffff" opacity="1.000000" stroke="none" d=" M659.593079,173.652924   C662.982483,168.897766 666.137939,164.428268 669.394409,160.033554   C670.976196,157.898727 673.253906,157.621567 674.907715,159.540558   C679.087219,164.390137 683.854553,169.038116 686.771484,174.611969   C694.695190,189.752716 697.806458,206.483414 698.556458,223.276764   C699.520081,244.852631 698.790833,266.504120 698.790833,288.492126   C690.604553,286.870544 682.767944,284.995056 674.826599,283.839294   C667.431152,282.762970 659.933960,282.279602 652.463379,281.859558   C646.417542,281.519653 644.822205,280.711365 644.200867,274.559753   C643.232056,264.969269 642.073608,255.305954 642.301636,245.704498   C642.896667,220.647705 647.829834,196.480148 659.593079,173.652924  z" id="path8" />
   <path fill="#ffffff" opacity="1.000000" stroke="none" d=" M452.213989,478.183044   C490.971985,451.343750 544.387024,452.835815 578.567810,481.941681   C593.077087,494.296661 602.729736,509.346558 601.243408,529.591675   C600.029419,546.126648 592.266174,558.566895 578.332947,567.262512   C564.306641,576.016174 548.649048,579.731384 532.466125,581.405090   C509.574738,583.772644 486.777313,583.494629 465.015625,574.938293   C457.215820,571.871460 449.528229,567.770264 442.850281,562.734436   C419.513000,545.135925 416.195251,517.445679 434.613037,494.825134   C439.596741,488.704224 446.100220,483.820740 452.213989,478.183044  M524.715698,528.893555   C525.506226,527.224304 525.936218,525.195679 527.164795,523.963013   C529.495361,521.624756 532.384338,519.855591 534.860535,517.647339   C539.887451,513.164429 540.629639,505.973389 536.721680,501.089752   C532.724609,496.094727 525.728638,495.062744 520.149170,498.813171   C517.414001,500.651672 514.879761,502.789093 512.025635,504.965820   C509.484772,502.973267 507.082550,500.953003 504.541962,499.125031   C498.903931,495.068420 491.504883,495.933411 487.540314,501.013306   C483.419006,506.293976 483.706390,514.023438 489.701355,517.742371   C498.015411,522.899963 500.106995,529.773560 498.797089,538.628662   C498.700897,539.279053 498.772064,539.957214 498.793182,540.621521   C499.037292,548.300049 504.244141,553.837708 511.363586,553.997131   C518.714722,554.161804 524.311768,548.678589 524.676086,540.771851   C524.844238,537.122192 524.712585,533.458740 524.715698,528.893555  z" id="path9" />
</svg>
